<?xml version="1.0" encoding="UTF-8" standalone="no"?>

<svg
   stroke-miterlimit="10"
   style="clip-rule:evenodd;fill-rule:nonzero;stroke-linecap:round;stroke-linejoin:round"
   version="1.1"
   viewBox="0 0 888.66559 500.62815"
   xml:space="preserve"
   id="svg99"
   sodipodi:docname="Untitled.svg"
   inkscape:version="1.2 (dc2aeda, 2022-05-15)"
   xmlns:inkscape="http://www.inkscape.org/namespaces/inkscape"
   xmlns:sodipodi="http://sodipodi.sourceforge.net/DTD/sodipodi-0.dtd"
   xmlns="http://www.w3.org/2000/svg"
   xmlns:svg="http://www.w3.org/2000/svg">
<defs
   id="defs2" />
<g
   id="Layer-1"
   transform="translate(-1003.1144,-1133.771)">
<g
   opacity="1"
   id="g96">
<g
   opacity="1"
   id="g6">
<path
   d="m 1523,1464.59 c -8.19,0 -16.38,0.05 -24.56,0.03 -5.14,-0.01 -10.31,-0.19 -15.44,0.04 -1.1,0.04 -2.16,0.23 -3.25,0.37 -2.56,0.32 -5.11,0.72 -7.66,1.16 -4.35,0.75 -8.68,1.49 -13.03,2.28 -13.15,2.38 -26.33,4.71 -39.53,6.78 12.91,1.97 25.86,3.67 38.85,5.13 4.41,0.49 8.82,0.94 13.24,1.34 3.69,0.33 7.37,0.67 11.07,0.72 1.46,0.02 2.94,-0.17 4.4,-0.28 2.57,-0.2 5.12,-0.42 7.69,-0.66 6.63,-0.61 13.27,-1.18 19.91,-1.75 18.94,-1.62 37.9,-2.84 56.9,-3.47 37.34,-1.23 74.72,-1.04 112.07,-1.31 17.58,-0.13 35.14,-0.44 52.72,-0.91 -17.56,-0.65 -35.12,-1.45 -52.66,-2.44 -29.3,-1.65 -58.57,-3.67 -87.88,-5.09 -24.26,-1.18 -48.54,-1.92 -72.84,-1.94 z"
   fill="#c14a4a"
   stroke="none"
   id="path4" />
</g>
<g
   opacity="1"
   id="g10">
<path
   d="m 1269.12,1466.62 c -4.02,0.23 -8.05,0.81 -12.06,1.26 -6.27,0.69 -12.53,1.38 -18.81,2.03 -18.9,1.94 -37.83,3.54 -56.81,4.53 -37.31,1.94 -74.66,2.43 -112,3.4 -17.58,0.46 -35.16,1.14 -52.72,1.94 17.57,0.32 35.13,0.75 52.69,1.41 29.32,1.1 58.63,2.6 87.97,3.47 22.79,0.67 45.57,0.93 68.37,0.59 9.22,-0.14 18.43,-0.35 27.66,-0.5 4.18,-0.07 8.4,-0.12 12.59,-0.25 1.41,-0.05 2.81,-0.03 4.22,-0.12 1.41,-0.1 2.85,-0.36 4.25,-0.57 2.34,-0.34 4.64,-0.77 6.97,-1.22 4.66,-0.88 9.31,-1.81 13.97,-2.75 12.66,-2.54 25.34,-4.99 38.06,-7.25 -13.35,-1.76 -26.69,-3.25 -40.09,-4.5 -4.76,-0.44 -9.53,-0.81 -14.29,-1.15 -3.29,-0.24 -6.66,-0.5 -9.97,-0.32 z"
   fill="#c14a4a"
   stroke="none"
   id="path8" />
</g>
<g
   opacity="1"
   id="g14">
<path
   d="m 1364.78,1454.16 c -1.13,-0.02 -2.27,0.08 -3.34,0.34 -2.69,0.66 -4.28,2.39 -5.63,4.69 -2.05,3.52 -2.63,7.69 -1.53,11.62 0.99,3.51 3.13,6.74 5.88,9.13 2.22,1.93 4.83,3.18 7.72,3.75 1.33,0.26 2.72,0.37 4.09,0.31 1.37,-0.06 2.73,-0.32 4.03,-0.75 4.9,-1.63 9.46,-6.78 9.5,-12.13 0.01,-0.76 -0.09,-1.55 -0.28,-2.31 -0.79,-3.15 -3.14,-5.75 -5.84,-7.43 -0.72,-0.45 -2.13,-1.45 -3.04,-1 -0.85,0.41 -0.9,1.66 -1.03,2.46 -0.06,0.41 -0.12,0.79 -0.19,1.19 -0.01,0.09 0.01,0.01 -0.93,1.19 0,0 -0.01,0.03 0,0.03 1.42,-1.04 1.22,-0.63 1.43,-1.06 0.18,-0.37 0.36,-0.73 0.54,-1.1 0.04,-0.09 0.08,-0.18 0.12,-0.28 0.15,-0.31 0.27,-0.62 0.47,-0.9 0.01,-0.02 0.02,-0.02 0.03,-0.03 1.08,1.04 2.08,2.07 2.81,3.4 1.52,2.74 1.69,5.48 -0.81,7.66 -0.54,0.47 -1.14,0.83 -1.78,1.15 -0.9,0.46 -1.86,0.73 -2.88,0.69 -1.46,-0.05 -3.03,-0.82 -4.09,-1.81 -0.26,-0.24 -0.4,-0.62 -0.53,-0.91 -0.46,-1 -0.89,-1.98 -0.88,-3.12 0.01,-0.22 0.31,-1.04 0.66,-0.78 0.12,0.08 0.37,0.97 0.34,1.12 -0.01,0.09 -0.16,0.19 -0.09,0.25 0.08,0.06 0.22,-0.02 0.28,-0.09 0.05,-0.05 -0.03,-0.12 -0.03,-0.19 -0.01,-0.36 -0.01,-0.85 0.03,-1.19 0.09,-0.67 0.4,-1.24 0.6,-1.87 0.14,-0.48 0.49,-1.09 0.81,-1.47 0.1,-0.12 0.49,-0.26 0.34,-0.31 -0.61,-0.24 -1.32,-0.21 -1.97,-0.32 -0.03,0 0.07,-0.02 0.1,-0.03 0.04,-0.01 0.33,-0.04 0.34,-0.06 0.03,-0.1 -0.49,-0.48 -0.56,-0.56 -0.22,-0.25 -0.57,-0.76 -0.47,-1.13 0.03,-0.11 0.42,0.17 0.5,0.22 0.01,0 0.03,0.01 0.03,0 -0.07,-0.23 -0.48,-0.77 -0.25,-0.69 0.48,0.18 4.91,3.38 4.91,3.38 0,0 0.47,-2.4 0.84,-3.31 0.2,-0.48 0.51,-0.9 0.59,-1.41 0.05,-0.24 -0.14,-0.48 -0.21,-0.72 -0.07,-0.22 0.12,-0.56 0.06,-0.81 -0.23,-0.94 -0.84,-1.76 -1.59,-2.35 -0.24,-0.17 -0.5,-0.31 -0.72,-0.5 -0.06,-0.05 -0.2,-0.36 -0.28,-0.37 -0.65,-0.1 -1.3,-0.17 -1.94,-0.31 -0.21,-0.05 -0.39,-0.17 -0.6,-0.25 -0.71,-0.27 -1.47,-0.47 -2.22,-0.63 -1.07,-0.23 -2.2,-0.38 -3.34,-0.4 z"
   fill="#c14a4a"
   stroke="none"
   id="path12" />
</g>
<g
   opacity="1"
   id="g18">
<path
   d="m 1005.53,1133.88 c -0.5,-0.15 -0.84,-0.15 -0.97,0.03 -0.79,5.09 -1.28,10.19 -1.4,15.34 -0.23,9.03 0.46,18.05 0.96,27.06 0.38,6.56 0.51,13.13 0.66,19.69 0.8,35.56 0.83,71.12 0.84,106.69 -0.51,0.69 2.5,3.84 6.72,7.03 4.23,3.19 8.05,5.22 8.57,4.53 -0.02,-35.57 -0.02,-71.15 -0.82,-106.72 -0.15,-6.94 -0.32,-13.88 -0.71,-20.81 -0.49,-8.62 -1.12,-17.24 -0.91,-25.88 0.13,-5.11 0.59,-10.19 1.37,-15.25 0.53,-0.68 -2.46,-3.86 -6.68,-7.09 -3.17,-2.42 -6.13,-4.18 -7.63,-4.62 z"
   fill="#c14a4a"
   stroke="none"
   id="path16" />
</g>
<g
   opacity="1"
   id="g22">
<path
   d="m 1007.75,1136.5 c -0.48,-0.12 -0.82,-0.11 -0.94,0.06 3.95,8.4 8.88,16.21 13.47,24.25 3.38,5.92 6.47,12 9.5,18.1 3.37,6.77 6.64,13.6 10,20.37 4.95,9.99 10.03,19.88 15.1,29.81 11.77,23.09 23.93,46 37.59,68.03 -0.45,0.66 2.46,3.4 6.5,6.13 4.04,2.73 7.68,4.41 8.12,3.75 -13.54,-21.86 -25.57,-44.54 -37.25,-67.44 -5.05,-9.91 -10.15,-19.81 -15.09,-29.78 -3.36,-6.78 -6.6,-13.6 -9.97,-20.37 -3.09,-6.21 -6.25,-12.39 -9.69,-18.41 -4.5,-7.9 -9.37,-15.57 -13.25,-23.81 0.48,-0.68 -2.47,-3.6 -6.62,-6.53 -3.11,-2.2 -6.02,-3.79 -7.47,-4.16 z"
   fill="#c14a4a"
   stroke="none"
   id="path20" />
</g>
<g
   opacity="1"
   id="g26">
<path
   d="m 1098.44,1145.62 c -0.5,-0.14 -0.84,-0.14 -0.97,0.04 -1.3,12.42 -1.93,24.88 -2.03,37.37 -0.15,17.47 0.65,34.95 0.97,52.41 0.38,21.36 -0.98,42.7 -1.1,64.06 -0.52,0.69 2.5,3.81 6.72,7 4.23,3.19 8.07,5.22 8.59,4.53 0.12,-21.37 1.46,-42.69 1.07,-64.06 -0.32,-17.46 -1.09,-34.91 -0.94,-52.38 0.11,-12.46 0.7,-24.88 2,-37.28 0.52,-0.69 -2.47,-3.85 -6.69,-7.06 -3.16,-2.41 -6.12,-4.19 -7.62,-4.63 z"
   fill="#c14a4a"
   stroke="none"
   id="path24" />
</g>
<g
   opacity="1"
   id="g30">
<path
   d="m 1133.72,1294.16 c -2.51,0.1 -4.8,1.98 -6.66,3.46 -3.67,2.94 -7.47,6.73 -5.56,11.76 0.37,0.96 0.85,1.87 1.44,2.71 0.88,1.26 2.11,2.68 3.18,3.69 3.58,3.39 7.4,6.44 11.66,8.91 1.47,0.85 3.13,1.57 4.84,1.69 1.23,0.08 2.47,-0.12 3.63,-0.5 2.08,-0.69 4.06,-1.99 5.31,-3.82 2.06,-3.01 0,0 -2.59,-17.84 0.2,-0.38 -1.18,-1.46 -3,-2.66 0.01,-0.01 0.21,0.02 0.22,0 -3.68,-2.98 -1.92,-1.64 -3.69,-2.97 -1.63,-1.22 -3.37,-2.29 -5.12,-3.34 -1.05,-0.63 -2.4,-1.15 -3.66,-1.09 z"
   fill="#c14a4a"
   stroke="none"
   id="path28" />
</g>
<g
   opacity="1"
   id="g34">
<path
   d="m 1283.25,1150.84 c -0.5,-0.15 -0.87,-0.14 -1,0.04 -1.59,2.62 -3.2,5.22 -4.75,7.87 -3.09,5.26 -6,10.64 -8.91,16 -4.35,8.05 -8.45,16.26 -13.03,24.19 -2.48,4.29 -5.11,8.46 -7.9,12.56 -4.91,7.2 -10.17,14.18 -14.75,21.59 -2.04,3.3 -3.91,6.71 -5.85,10.07 -2.89,5 -5.79,9.99 -8.68,15 -8.43,14.53 -16.96,29 -25.82,43.28 -0.53,0.68 2.43,3.89 6.63,7.18 4.2,3.3 8.02,5.44 8.56,4.76 8.86,-14.29 17.42,-28.77 25.84,-43.32 3.17,-5.46 6.32,-10.91 9.47,-16.37 1.68,-2.9 3.31,-5.84 5.06,-8.69 4.58,-7.41 9.83,-14.37 14.72,-21.56 2.8,-4.11 5.46,-8.29 7.94,-12.6 4.58,-7.93 8.68,-16.16 13.03,-24.22 2.9,-5.35 5.8,-10.71 8.88,-15.96 1.55,-2.65 3.19,-5.25 4.78,-7.88 0.53,-0.68 -2.43,-3.9 -6.63,-7.19 -3.14,-2.46 -6.09,-4.29 -7.59,-4.75 z"
   fill="#c14a4a"
   stroke="none"
   id="path32" />
</g>
<g
   opacity="1"
   id="g38">
<path
   d="m 1279.97,1156.41 c -0.5,-0.14 -0.84,-0.14 -0.97,0.03 2.07,18.7 12.6,34.26 19.66,51.25 0.81,1.94 1.69,3.92 2.22,5.97 0.54,2.12 0.7,4.33 1.21,6.46 0.53,2.21 1.38,4.36 2.29,6.44 2.09,4.8 5.04,9.14 7.43,13.78 3.43,6.67 6.64,13.46 9.88,20.22 2.35,4.92 4.77,9.83 6.97,14.82 3.29,7.49 5.91,15.24 9.18,22.74 1.94,4.43 4.12,8.72 6.63,12.85 -0.45,0.66 2.48,3.41 6.53,6.15 4.05,2.75 7.68,4.48 8.12,3.82 -6.97,-11.44 -10.59,-24.38 -16.12,-36.5 -2.43,-5.33 -5.03,-10.59 -7.56,-15.88 -2.85,-5.94 -5.68,-11.92 -8.69,-17.78 -2.34,-4.55 -5.23,-8.8 -7.28,-13.5 -0.84,-1.92 -1.64,-3.9 -2.13,-5.94 -0.51,-2.14 -0.67,-4.36 -1.22,-6.5 -0.55,-2.18 -1.51,-4.3 -2.37,-6.37 -6.96,-16.75 -17.4,-32.16 -19.44,-50.59 0.52,-0.69 -2.49,-3.82 -6.72,-6.97 -3.16,-2.37 -6.13,-4.08 -7.62,-4.5 z"
   fill="#c14a4a"
   stroke="none"
   id="path36" />
</g>
<g
   opacity="1"
   id="g42">
<path
   d="m 1364.78,1306.62 c -14.16,1.19 -28.29,3.44 -42.53,2.16 -0.55,0.64 2.19,3.88 6.13,7.25 3.93,3.37 7.57,5.58 8.12,4.94 14.36,1.28 28.62,-0.93 42.91,-2.13 0.55,-0.65 -2.28,-3.91 -6.32,-7.28 -4.03,-3.37 -7.76,-5.59 -8.31,-4.94 z"
   fill="#c14a4a"
   stroke="none"
   id="path40" />
</g>
<g
   opacity="1"
   id="g46">
<path
   d="m 1304.91,1240.44 c -3.41,0.71 -6.84,1.14 -10.32,1.34 -6.41,0.37 -12.84,0.09 -19.25,0.66 -6.4,0.56 -12.54,2.62 -18.93,3.22 -4.23,0.39 -8.58,0.38 -12.82,0.12 -3.69,-0.23 -7.35,-0.72 -11.03,-1.09 -0.55,0.64 2.2,3.91 6.13,7.28 3.92,3.37 7.54,5.58 8.09,4.94 3.71,0.37 7.43,0.86 11.16,1.09 2.16,0.13 4.34,0.21 6.53,0.19 2.19,-0.02 4.4,-0.14 6.56,-0.35 6.39,-0.59 12.54,-2.65 18.94,-3.22 6.38,-0.56 12.79,-0.25 19.19,-0.62 3.54,-0.21 7.02,-0.65 10.5,-1.38 0.54,-0.66 -2.3,-3.94 -6.38,-7.31 -4.07,-3.36 -7.83,-5.54 -8.37,-4.87 z"
   fill="#c14a4a"
   stroke="none"
   id="path44" />
</g>
<g
   opacity="1"
   id="g50">
<path
   d="m 1503.53,1147.94 c -0.5,-0.14 -0.84,-0.14 -0.97,0.03 1.82,17.21 1.56,34.53 2.19,51.81 0.51,14 1.2,27.97 1.59,41.97 0.71,24.86 0.91,49.73 0.94,74.59 -0.52,0.69 2.5,3.85 6.72,7.04 4.22,3.18 8.07,5.18 8.59,4.5 -0.03,-24.88 -0.26,-49.73 -0.97,-74.6 -0.39,-14 -1.08,-28 -1.59,-42 -0.63,-17.3 -0.34,-34.63 -2.15,-51.87 0.51,-0.69 -2.5,-3.82 -6.72,-6.97 -3.17,-2.37 -6.13,-4.08 -7.63,-4.5 z"
   fill="#c14a4a"
   stroke="none"
   id="path48" />
</g>
<g
   opacity="1"
   id="g54">
<path
   d="m 1603.66,1144.34 c -0.5,-0.14 -0.84,-0.14 -0.97,0.04 -0.09,54.96 -1,109.93 -1.16,164.9 -0.52,0.69 2.47,3.84 6.69,7.03 4.22,3.19 8.07,5.19 8.59,4.5 0.17,-54.96 1.1,-109.91 1.19,-164.87 0.52,-0.69 -2.49,-3.84 -6.72,-7.03 -3.17,-2.4 -6.12,-4.14 -7.62,-4.57 z"
   fill="#c14a4a"
   stroke="none"
   id="path52" />
</g>
<g
   opacity="1"
   id="g58">
<path
   d="m 1592.44,1237.09 c -7.44,0.71 -14.85,1.25 -22.32,1.57 -8.54,0.36 -17.11,0.46 -25.65,0.96 -7.26,0.44 -14.5,1.28 -21.78,1.47 -4.18,0.12 -8.34,-0.04 -12.5,-0.47 -0.55,0.64 2.2,3.92 6.12,7.29 3.93,3.37 7.55,5.57 8.1,4.93 4.26,0.43 8.53,0.59 12.81,0.47 7.83,-0.21 15.62,-1.15 23.44,-1.56 10.48,-0.55 20.98,-0.66 31.46,-1.25 4.99,-0.28 9.97,-0.71 14.94,-1.19 0.55,-0.66 -2.27,-3.94 -6.31,-7.31 -4.04,-3.37 -7.76,-5.56 -8.31,-4.91 z"
   fill="#c14a4a"
   stroke="none"
   id="path56" />
</g>
<g
   opacity="1"
   id="g62">
<path
   d="m 1640.16,1164.44 c -0.5,-0.14 -0.81,-0.14 -0.94,0.03 1.22,11.71 2.83,23.37 4.25,35.06 0.84,6.9 1.77,13.81 2.06,20.75 0.45,10.82 -0.4,21.65 -0.44,32.47 -0.06,18.51 0.46,36.99 2.38,55.41 -0.52,0.68 2.47,3.81 6.69,6.96 4.22,3.16 8.08,5.16 8.59,4.47 -1.91,-18.37 -2.44,-36.84 -2.37,-55.31 0.03,-10.83 0.91,-21.67 0.46,-32.5 -0.28,-6.98 -1.25,-13.92 -2.09,-20.84 -1.42,-11.68 -3.03,-23.33 -4.25,-35.03 0.51,-0.69 -2.49,-3.82 -6.72,-6.97 -3.17,-2.37 -6.13,-4.08 -7.62,-4.5 z"
   fill="#c14a4a"
   stroke="none"
   id="path60" />
</g>
<g
   opacity="1"
   id="g66">
<path
   d="m 1760.03,1302.47 c -3.49,-0.05 -7,0.05 -10.5,0.25 -13.93,0.78 -27.72,3.12 -41.65,3.87 -9.79,0.53 -19.61,1.05 -29.41,1.19 -4.34,0.06 -8.79,-0.87 -13.09,0 -4.22,0.85 -7.92,3.09 -11.85,4.72 -0.55,0.67 2.34,3.96 6.47,7.31 4.13,3.36 7.92,5.52 8.47,4.85 3.87,-1.61 7.54,-3.85 11.69,-4.69 4.19,-0.86 8.57,0.06 12.81,0 9.82,-0.14 19.66,-0.63 29.47,-1.16 13.93,-0.75 27.72,-3.12 41.65,-3.9 6.89,-0.39 13.74,-0.33 20.6,0.34 0.55,-0.64 -2.17,-3.88 -6.1,-7.25 -3.92,-3.37 -7.57,-5.58 -8.12,-4.94 -3.49,-0.34 -6.95,-0.54 -10.44,-0.59 z"
   fill="#c14a4a"
   stroke="none"
   id="path64" />
</g>
<g
   opacity="1"
   id="g70">
<path
   d="m 1650.22,1239.44 c -0.55,0.65 2.25,3.94 6.25,7.31 4,3.37 7.67,5.56 8.22,4.91 1.63,-0.01 1.93,-0.01 1.62,0 0.15,0 0.3,0 0.44,0 0.17,0 0.67,0 0.5,0 -0.31,0 -0.01,0 0.69,0 0.55,-0.65 -2.23,-3.91 -6.22,-7.28 -4,-3.38 -7.67,-5.59 -8.22,-4.94 -0.71,0 -0.44,0 -0.72,0 -0.16,0 -0.33,0 -0.5,0 -0.14,0 -0.3,0 -0.44,0 -0.31,0 -0.62,0 -0.93,0 -0.11,0 -0.42,0 -0.32,0 0.42,0 0.01,0 -0.37,0 z"
   fill="#c14a4a"
   stroke="none"
   id="path68" />
</g>
<g
   opacity="1"
   id="g74">
<path
   d="m 1719.12,1161.44 c -10.99,0.07 -22,0.45 -33,0.5 -10.7,0.04 -21.4,0.15 -32.09,0.84 -6.19,0.4 -12.52,0.62 -18.53,2.31 -0.55,0.67 2.34,3.95 6.44,7.32 4.1,3.36 7.86,5.54 8.4,4.87 5.92,-1.67 12.18,-1.89 18.28,-2.28 10.65,-0.69 21.31,-0.8 31.97,-0.84 21.9,-0.09 43.83,-1.49 65.66,0.78 0.55,-0.64 -2.17,-3.89 -6.09,-7.25 -3.92,-3.37 -7.55,-5.61 -8.1,-4.97 -10.96,-1.14 -21.94,-1.36 -32.94,-1.28 z"
   fill="#c14a4a"
   stroke="none"
   id="path72" />
</g>
<g
   opacity="1"
   id="g78">
<path
   d="m 1688.09,1239.56 c -12.35,0.17 -24.67,1.07 -37.03,1.16 -0.55,0.65 2.22,3.94 6.22,7.31 4,3.38 7.7,5.56 8.25,4.91 12.36,-0.09 24.68,-1.02 37.03,-1.19 0.55,-0.65 -2.25,-3.91 -6.25,-7.28 -4,-3.37 -7.67,-5.56 -8.22,-4.91 z"
   fill="#c14a4a"
   stroke="none"
   id="path76" />
</g>
<g
   opacity="1"
   id="g82">
<path
   d="m 1689.31,1231.81 c -0.54,-0.16 -0.89,-0.15 -1.03,0.03 -0.41,1.62 -0.66,3.24 -0.66,4.91 0.02,3.89 1.17,7.67 1.85,11.47 -0.55,0.74 2.67,4.07 7.22,7.44 4.54,3.36 8.67,5.52 9.22,4.78 -0.67,-3.71 -1.78,-7.46 -1.79,-11.25 0,-1.6 0.24,-3.15 0.63,-4.69 0.57,-0.74 -2.67,-4.16 -7.22,-7.66 -3.41,-2.62 -6.6,-4.55 -8.22,-5.03 z"
   fill="#c14a4a"
   stroke="none"
   id="path80" />
</g>
<g
   opacity="1"
   id="g86">
<path
   d="m 1753.12,1156.19 c -0.54,-0.16 -0.88,-0.16 -1.03,0.03 -0.42,2.48 -0.65,4.98 -0.5,7.5 0.21,3.49 1.12,6.82 2.13,10.16 -0.54,0.73 2.69,4.01 7.22,7.31 4.52,3.3 8.62,5.39 9.15,4.65 -0.96,-3.18 -1.83,-6.4 -2.03,-9.75 -0.14,-2.44 0.09,-4.84 0.5,-7.25 0.57,-0.74 -2.63,-4.17 -7.18,-7.65 -3.42,-2.62 -6.63,-4.53 -8.26,-5 z"
   fill="#c14a4a"
   stroke="none"
   id="path84" />
</g>
<g
   opacity="1"
   id="g90">
<path
   d="m 1773.62,1295.34 c -0.53,-0.15 -0.92,-0.12 -1.06,0.07 0.04,1.56 0.16,3.08 0.44,4.62 0.52,2.93 1.51,5.75 2.38,8.59 -0.54,0.74 2.69,4.02 7.21,7.32 4.53,3.29 8.65,5.39 9.19,4.65 -0.84,-2.75 -1.81,-5.5 -2.31,-8.34 -0.26,-1.47 -0.38,-2.95 -0.41,-4.44 0.56,-0.74 -2.66,-4.13 -7.22,-7.56 -3.41,-2.57 -6.6,-4.45 -8.22,-4.91 z"
   fill="#c14a4a"
   stroke="none"
   id="path88" />
</g>
<g
   opacity="1"
   id="g94">
<path
   d="m 1411.19,1145.59 c -1.28,-0.01 -2.52,0.08 -3.69,0.38 -2.58,0.65 -4.92,2.04 -7.09,3.53 -4.58,3.14 -8.09,7.31 -11.07,11.97 -2.84,4.46 -5.49,9.47 -6.46,14.72 -0.33,1.76 -0.49,3.55 -0.5,5.34 -0.02,1.8 0.11,3.6 0.31,5.38 0.36,3.28 1.15,6.58 2.81,9.47 2.22,3.87 5.63,6.98 9.03,9.81 4.99,4.13 10.06,7.41 16.09,9.69 1.68,0.63 3.51,1.15 5.1,2 0.45,0.24 0.89,0.5 1.34,0.74 0.3,0.17 0.61,0.35 0.91,0.5 0.01,0.01 0.02,0 0.03,0 0.03,0.02 0.08,0.05 0.06,0.04 0.22,0.14 0.41,0.29 0.63,0.43 0.28,0.19 0.58,0.38 0.87,0.57 0.53,0.38 1.06,0.74 1.6,1.12 1.68,1.19 3.33,2.47 5,3.69 5.42,3.98 11.02,7.62 16.84,11 4.53,2.63 9.19,5.06 13.59,7.91 2.13,1.37 4.28,2.76 6.32,4.28 0.09,0.1 0.18,0.23 0.28,0.34 0.13,0.16 0.28,0.3 0.4,0.47 0.33,0.42 0.69,0.92 0.97,1.37 0.94,1.49 1.63,3.12 2.1,4.82 0.7,2.55 1.05,5.19 1.06,7.84 0.08,15.87 -11.5,27.83 -22.66,37.62 -1.68,1.48 -3.25,3.11 -5.03,4.47 -1.74,1.34 -3.73,2.39 -5.62,3.5 -1.99,1.17 -4.08,2.3 -6.38,2.66 -1.63,0.26 -3.32,0.09 -4.94,-0.13 -2.87,-0.37 -5.68,-1.15 -8.43,-2.03 -2.89,-0.91 -5.74,-1.96 -8.63,-2.87 -0.07,-0.27 -0.1,-0.55 -0.19,-0.81 0.54,-0.74 -2.69,-4.03 -7.22,-7.32 -4.52,-3.29 -8.62,-5.36 -9.15,-4.62 0.79,2.48 0.75,5.3 2.25,7.53 1.2,1.79 2.76,3.35 4.34,4.81 1.19,1.1 2.44,2.11 3.69,3.13 3.26,2.65 6.87,5.06 10.69,6.84 2.76,1.29 5.68,2.1 8.59,2.97 2.08,0.62 4.13,1.34 6.19,2.03 4.28,1.45 8.6,2.89 13.09,3.47 1.01,0.13 2.04,0.25 3.07,0.28 1.02,0.03 2.05,-0.04 3.06,-0.25 2.58,-0.53 4.89,-1.87 7.12,-3.22 1.59,-0.96 3.28,-1.86 4.75,-3 1.79,-1.37 3.34,-2.98 5.03,-4.47 10.96,-9.6 22.31,-21.28 22.85,-36.75 0.14,-4.08 -0.36,-8.38 -1.94,-12.18 -2.7,-6.47 -8.38,-11.77 -13.59,-16.22 -7.6,-6.48 -16.09,-12.1 -24.69,-17.16 -5.98,-3.51 -12.24,-6.63 -17.88,-10.69 -6.99,-5.03 -13.81,-10.31 -21.5,-14.28 -1.36,-0.7 -2.8,-1.19 -4.21,-1.75 -0.24,-0.71 -0.53,-1.39 -0.69,-2.12 -0.91,-4.11 -1.11,-8.53 -0.5,-12.69 0.57,-3.9 2.17,-7.6 4,-11.06 3.29,-6.25 7.56,-12.16 13.43,-16.19 1.82,-1.24 3.76,-2.39 5.85,-3.09 2.93,-0.99 6.04,-0.7 9,0 4.54,1.06 8.78,2.92 13.09,4.65 0.66,0.27 1.35,0.51 2,0.78 0.88,0.8 1.76,1.59 2.6,2.44 2.66,2.69 5.02,5.88 6.59,9.34 1.17,2.59 1.96,5.61 1.31,8.44 -0.85,3.71 -3.59,6.73 -5.28,10.06 -0.57,0.74 2.63,4.22 7.16,7.76 4.53,3.53 8.67,5.76 9.25,5.03 2.13,-4.22 5.76,-7.99 5.56,-13 -0.16,-4.03 -2.07,-7.83 -4.19,-11.16 -3.65,-5.75 -8.47,-10.63 -13.44,-15.25 -5.39,-5.02 -11.03,-9.83 -17.43,-13.53 -2.9,-1.68 -5.97,-2.9 -9.07,-4.16 -2.39,-0.97 -4.77,-1.93 -7.21,-2.78 -3.3,-1.14 -7.4,-2.39 -11.22,-2.44 z"
   fill="#c14a4a"
   stroke="none"
   id="path92" />
</g>
</g>
</g>
</svg>
